<svg xmlns="http://www.w3.org/2000/svg" width="25.281" height="24.477" viewBox="0 0 25.281 24.477"><path d="M10.711 11.602l-.375 2.104c-.33 1.899-1.273 2.524-3.309 2.524H3.206c-1.648 0-2.513-.568-2.513-1.933 0-.227.034-.489.08-.762l.421-2.422c.375-2.115 1.364-2.865 3.422-2.865h3.787c1.637 0 2.547.33 2.547 1.671 0 .216-.034.466-.08.75H8.982c.011-.068.022-.17.022-.205 0-.455-.364-.648-1.364-.648H4.855c-1.137 0-1.604.352-1.808 1.535l-.353 2.001a3.71 3.71 0 0 0-.057.557c0 .603.33.75 1.33.75h3.104c.943 0 1.25-.25 1.353-.818L8.573 13H5.458l.25-1.399h5.003zM11.666 13.253h1.888l-.33 1.888h-1.888l.33-1.888zm.625-3.593h1.887l-.33 1.888H11.96l.331-1.888zM24.638 11.602l-.375 2.104c-.33 1.899-1.273 2.524-3.309 2.524h-3.821c-1.648 0-2.513-.568-2.513-1.933 0-.227.034-.489.08-.762l.421-2.422c.375-2.115 1.364-2.865 3.422-2.865h3.787c1.637 0 2.547.33 2.547 1.671 0 .216-.034.466-.08.75H22.91c.011-.068.023-.17.023-.205 0-.455-.364-.648-1.365-.648h-2.786c-1.137 0-1.604.352-1.808 1.535l-.353 2.001a3.71 3.71 0 0 0-.057.557c0 .603.33.75 1.33.75h3.104c.943 0 1.25-.25 1.353-.818L22.5 13h-3.115l.25-1.399h5.003z"/></svg>