<?xml version="1.0" encoding="iso-8859-1"?>
<!-- Generator: Adobe Illustrator 16.0.0, SVG Export Plug-In . SVG Version: 6.00 Build 0)  -->
<!DOCTYPE svg PUBLIC "-//W3C//DTD SVG 1.1//EN" "http://www.w3.org/Graphics/SVG/1.1/DTD/svg11.dtd">
<svg version="1.1" id="&#x421;&#x43B;&#x43E;&#x439;_1"
	 xmlns="http://www.w3.org/2000/svg" xmlns:xlink="http://www.w3.org/1999/xlink" x="0px" y="0px" width="25.281px"
	 height="24.477px" viewBox="0 0 25.281 24.477" style="enable-background:new 0 0 25.281 24.477;" xml:space="preserve">
<g>
	<path d="M10.711,11.602l-0.375,2.104c-0.33,1.899-1.273,2.524-3.309,2.524H3.206c-1.648,0-2.513-0.568-2.513-1.933
		c0-0.227,0.034-0.489,0.08-0.762l0.421-2.422c0.375-2.115,1.364-2.865,3.422-2.865h3.787c1.637,0,2.547,0.33,2.547,1.671
		c0,0.216-0.034,0.466-0.08,0.75H8.982c0.011-0.068,0.022-0.17,0.022-0.205c0-0.455-0.364-0.648-1.364-0.648H4.855
		c-1.137,0-1.604,0.352-1.808,1.535l-0.353,2.001c-0.034,0.216-0.057,0.398-0.057,0.557c0,0.603,0.33,0.75,1.33,0.75h3.104
		c0.943,0,1.25-0.25,1.353-0.818L8.573,13H5.458l0.25-1.399H10.711z"/>
	<path d="M11.666,13.253h1.888l-0.33,1.888h-1.888L11.666,13.253z M12.291,9.66h1.887l-0.33,1.888h-1.888L12.291,9.66z"/>
	<path d="M24.638,11.602l-0.375,2.104c-0.33,1.899-1.273,2.524-3.309,2.524h-3.821c-1.648,0-2.513-0.568-2.513-1.933
		c0-0.227,0.034-0.489,0.08-0.762l0.421-2.422c0.375-2.115,1.364-2.865,3.422-2.865h3.787c1.637,0,2.547,0.33,2.547,1.671
		c0,0.216-0.034,0.466-0.08,0.75h-1.887c0.011-0.068,0.023-0.17,0.023-0.205c0-0.455-0.364-0.648-1.365-0.648h-2.786
		c-1.137,0-1.604,0.352-1.808,1.535l-0.353,2.001c-0.034,0.216-0.057,0.398-0.057,0.557c0,0.603,0.33,0.75,1.33,0.75h3.104
		c0.943,0,1.25-0.25,1.353-0.818L22.5,13h-3.115l0.25-1.399H24.638z"/>
</g>
</svg>
